Coordinates
version=1
nRows=24
nColumns=22
inDegrees=yes

Units are S.I. units (second, meters, Newtons, ...)
If the header above contains a line with 'inDegrees', this indicates whether rotational values are in degrees (yes) or radians (no).

endheader
time	pelvis_tilt	pelvis_list	pelvis_rotation	pelvis_tx	pelvis_ty	pelvis_tz	hip_flexion_r	hip_adduction_r	hip_rotation_r	knee_angle_r	ankle_angle_r	subtalar_angle_r	hip_flexion_l	hip_adduction_l	hip_rotation_l	knee_angle_l	ankle_angle_l	subtalar_angle_l	lumbar_extension	lumbar_bending	lumbar_rotation
      5.47000000	     -3.34410406	      2.72604473	   -149.24481778	      0.50593352	      0.94771026	      0.84992487	      3.90267266	     15.54353425	      9.25941651	    -16.23662908	      8.83379750	     -7.25253402	     27.81778780	     -9.80960378	      6.09680375	    -42.54393076	      8.19866301	      8.08633921	     -7.91557109	      2.90397294	      5.13509780
      5.48000000	     -3.29703187	      2.73198628	   -149.92795292	      0.50184359	      0.94774393	      0.85382090	      3.50556937	     15.43062166	      9.90557205	    -16.32628042	      9.08415786	     -7.27659090	     27.60225815	     -9.55235856	      6.90751996	    -39.85330352	      8.28113927	      8.48705494	     -7.92151013	      2.93628155	      5.15597653
      5.49000000	     -3.21191151	      2.73235663	   -150.58986850	      0.49775472	      0.94765155	      0.85770468	      3.18025764	     15.29126928	     10.49725589	    -16.47405163	      9.42953044	     -7.32495501	     27.36768752	     -9.28228035	      7.73122307	    -37.14115748	      8.29944928	      8.83737938	     -7.88755982	      2.93688954	      5.17006687
      5.50000000	     -3.15112432	      2.73024968	   -151.21448325	      0.49362397	      0.94752631	      0.86160609	      2.82441389	     15.15865395	     11.07172580	    -16.60045047	      9.75830045	     -7.38676477	     27.05912801	     -9.03765461	      8.58863230	    -34.41900052	      8.39591142	      9.24441599	     -7.86945197	      2.94594499	      5.14929586
      5.51000000	     -3.09330836	      2.73803342	   -151.80759445	      0.48946132	      0.94731683	      0.86550546	      2.47681830	     15.03536747	     11.62722903	    -16.72847539	     10.09004305	     -7.46623143	     26.71858652	     -8.82772896	      9.46578633	    -31.72177852	      8.55116447	      9.70045569	     -7.84093171	      2.96078119	      5.10746069
      5.52000000	     -3.04441702	      2.77111309	   -152.37226062	      0.48524493	      0.94702181	      0.86938986	      2.12689534	     14.94045304	     12.18506166	    -16.83807338	     10.38557447	     -7.57050239	     26.36227166	     -8.68015495	     10.34285315	    -29.08491073	      8.80972521	     10.23779845	     -7.79874096	      2.99927852	      5.04880622
      5.53000000	     -2.96897559	      2.80820019	   -152.91465886	      0.48102572	      0.94659933	      0.87323857	      1.84422237	     14.84067826	     12.70460612	    -17.01238881	     10.76569651	     -7.66702214	     26.02726736	     -8.56217007	     11.18091965	    -26.53881681	      9.01218226	     10.67099720	     -7.72677460	      3.01904044	      4.98151677
      5.54000000	     -2.89746790	      2.87450207	   -153.43179390	      0.47674764	      0.94609617	      0.87705529	      1.56698172	     14.77378149	     13.23868930	    -17.17379484	     11.11040514	     -7.76270907	     25.71475710	     -8.51689405	     11.94611820	    -24.12606124	      9.27878159	     11.08723630	     -7.63749937	      3.06206653	      4.90370411
      5.55000000	     -2.76449598	      2.98725008	   -153.91116648	      0.47244573	      0.94540663	      0.88085882	      1.37761649	     14.72579725	     13.77460661	    -17.33861876	     11.48041087	     -7.83304124	     25.52883602	     -8.51378469	     12.61377975	    -21.90530502	      9.51463828	     11.35332356	     -7.45372169	      3.11611675	      4.78418302
      5.56000000	     -2.67403982	      3.08591508	   -154.39393088	      0.46809319	      0.94475991	      0.88460531	      1.16321763	     14.68921940	     14.28431794	    -17.54623482	     11.83003137	     -7.90075343	     25.31842784	     -8.56516432	     13.07674184	    -19.87223529	      9.74778113	     11.61841657	     -7.32426732	      3.16679457	      4.70711836
      5.57000000	     -2.57439146	      3.20109925	   -154.85538756	      0.46371546	      0.94406037	      0.88833423	      0.97939238	     14.66688887	     14.76623667	    -17.77338806	     12.16326072	     -7.95290656	     25.18218930	     -8.64519838	     13.32890815	    -18.08497896	      9.95357781	     11.81764574	     -7.17610386	      3.22333784	      4.63114295
      5.58000000	     -2.48287134	      3.30536303	   -155.31738188	      0.45927806	      0.94338297	      0.89207388	      0.78649447	     14.63197710	     15.21053851	    -18.00877263	     12.46821006	     -7.98805035	     25.07825923	     -8.73156970	     13.31986742	    -16.55634078	     10.14561428	     11.99002959	     -7.03554322	      3.26958033	      4.58364361
      5.59000000	     -2.35369455	      3.42465695	   -155.73674024	      0.45486672	      0.94262533	      0.89585056	      0.64811902	     14.59830849	     15.64775075	    -18.25474440	     12.80711342	     -8.00486744	     25.09230473	     -8.78786079	     13.13729582	    -15.32019376	     10.22457626	     12.08311383	     -6.84743741	      3.31533991	      4.48003471
      5.60000000	     -2.23074405	      3.52587993	   -156.16232667	      0.45039720	      0.94190087	      0.89964725	      0.49850891	     14.54336501	     16.04465555	    -18.50730172	     13.12156280	     -7.99911788	     25.13025800	     -8.82158584	     12.73414234	    -14.35737457	     10.28805153	     12.15147302	     -6.66838931	      3.34292962	      4.41789898
      5.61000000	     -2.10876327	      3.61735544	   -156.57317205	      0.44590842	      0.94118427	      0.90347790	      0.34932179	     14.47710284	     16.41518521	    -18.76682656	     13.43091466	     -7.97362704	     25.20350293	     -8.82067855	     12.21186560	    -13.66523198	     10.31021936	     12.19680898	     -6.49352726	      3.36124974	      4.35956633
      5.62000000	     -1.98767801	      3.70627768	   -156.97069721	      0.44137279	      0.94046483	      0.90734907	      0.19393743	     14.40407527	     16.75188364	    -19.01897027	     13.76425645	     -7.94947822	     25.30133968	     -8.79026395	     11.67676009	    -13.22746179	     10.28999908	     12.20917767	     -6.31439347	      3.37808438	      4.30573052
      5.63000000	     -1.87858637	      3.78334053	   -157.38506633	      0.43678390	      0.93976722	      0.91119508	      0.03962952	     14.32826097	     17.07693560	    -19.30823725	     14.03295252	     -7.87534127	     25.40517210	     -8.74273320	     11.09331381	    -13.04237483	     10.25747889	     12.19445808	     -6.15425579	      3.38465307	      4.28115569
      5.64000000	     -1.78079277	      3.86422225	   -157.79117717	      0.43214150	      0.93906650	      0.91506197	     -0.12666732	     14.25763420	     17.37407654	    -19.59341551	     14.32504083	     -7.79174834	     25.51167318	     -8.68126657	     10.60362079	    -13.07451172	     10.17970937	     12.14806877	     -6.00136938	      3.40088142	      4.26504560
      5.65000000	     -1.69765624	      3.94847018	   -158.20169843	      0.42743994	      0.93837327	      0.91892006	     -0.29960302	     14.19642849	     17.64653501	    -19.89269754	     14.60189466	     -7.69308000	     25.60844359	     -8.61557898	     10.20761858	    -13.29673583	     10.05650275	     12.06432211	     -5.86269085	      3.42505850	      4.26625773
      5.66000000	     -1.62529236	      4.05109801	   -158.61645227	      0.42270148	      0.93768362	      0.92276364	     -0.46067315	     14.15630671	     17.87509034	    -20.21452915	     14.85399950	     -7.48289006	     25.70220841	     -8.55840143	      9.93192107	    -13.67806541	      9.83192743	     11.87332610	     -5.73106404	      3.47288338	      4.29473781
      5.67000000	     -1.57030929	      4.13099126	   -159.04159359	      0.41787556	      0.93704609	      0.92659932	     -0.65589008	     14.09973118	     18.11027214	    -20.53289366	     15.10576881	     -7.39728280	     25.74524948	     -8.48466684	      9.73114407	    -14.16292320	      9.58355647	     11.72612454	     -5.62526534	      3.50053572	      4.31970299
      5.68000000	     -1.50792115	      4.22234189	   -159.48505121	      0.41302204	      0.93643737	      0.93039791	     -0.82543697	     14.05031327	     18.33031012	    -20.87308301	     15.31887443	     -7.24445559	     25.78212199	     -8.41852825	      9.62256825	    -14.72157614	      9.17824732	     11.44252868	     -5.51189772	      3.53540547	      4.38327668
      5.69000000	     -1.46402165	      4.32131599	   -159.89809105	      0.40817984	      0.93590559	      0.93425717	     -0.99645335	     14.00501881	     18.46995796	    -21.22071974	     15.50547141	     -6.95945591	     25.79394442	     -8.34248276	      9.65623291	    -15.31871058	      8.59715707	     10.87534664	     -5.42089672	      3.59394229	      4.41388354
      5.70000000	     -1.39456785	      4.39654698	   -160.34331438	      0.40329756	      0.93545919	      0.93805875	     -1.14539293	     13.92991566	     18.66416285	    -21.58631940	     15.65784992	     -6.74550062	     25.79634109	     -8.25225435	      9.68277769	    -15.91895147	      7.90239311	     10.36093823	     -5.31563320	      3.61307857	      4.48403106
